<svg width="182" height="35" viewBox="0 0 182 35" fill="none" xmlns="http://www.w3.org/2000/svg">
<rect x="0.5" y="0.5" width="181" height="34" fill="white"/>
<rect x="0.5" y="0.5" width="181" height="34" stroke="black"/>
<path d="M13.6705 15.4545L15.2386 18.1307L16.8068 15.4545H17.9659L15.8523 18.7273L17.9659 22H16.8068L15.2386 19.4602L13.6705 22H12.5114L14.5909 18.7273L12.5114 15.4545H13.6705ZM20.1509 15.4545L21.7191 18.1307L23.2873 15.4545H24.4464L22.3327 18.7273L24.4464 22H23.2873L21.7191 19.4602L20.1509 22H18.9918L21.0714 18.7273L18.9918 15.4545H20.1509ZM26.6314 15.4545L28.1996 18.1307L29.7678 15.4545H30.9268L28.8132 18.7273L30.9268 22H29.7678L28.1996 19.4602L26.6314 22H25.4723L27.5518 18.7273L25.4723 15.4545H26.6314ZM33.1119 15.4545L34.68 18.1307L36.2482 15.4545H37.4073L35.2937 18.7273L37.4073 22H36.2482L34.68 19.4602L33.1119 22H31.9528L34.0323 18.7273L31.9528 15.4545H33.1119ZM39.5923 15.4545L41.1605 18.1307L42.7287 15.4545H43.8878L41.7741 18.7273L43.8878 22H42.7287L41.1605 19.4602L39.5923 22H38.4332L40.5128 18.7273L38.4332 15.4545H39.5923ZM46.0728 15.4545L47.641 18.1307L49.2092 15.4545H50.3683L48.2546 18.7273L50.3683 22H49.2092L47.641 19.4602L46.0728 22H44.9137L46.9933 18.7273L44.9137 15.4545H46.0728Z" fill="black"/>
<path d="M79 0.75V34.25" stroke="black"/>
<path d="M108.926 18.0625V22H107.92V15.4545H108.892V16.4773H108.977C109.131 16.1449 109.364 15.8778 109.676 15.6761C109.989 15.4716 110.392 15.3693 110.886 15.3693C111.33 15.3693 111.717 15.4602 112.05 15.642C112.382 15.821 112.641 16.0938 112.825 16.4602C113.01 16.8239 113.102 17.2841 113.102 17.8409V22H112.097V17.9091C112.097 17.3949 111.963 16.9943 111.696 16.7074C111.429 16.4176 111.063 16.2727 110.597 16.2727C110.276 16.2727 109.989 16.3423 109.736 16.4815C109.486 16.6207 109.288 16.8239 109.143 17.0909C108.999 17.358 108.926 17.6818 108.926 18.0625ZM116.866 22.1534C116.451 22.1534 116.075 22.0753 115.737 21.919C115.399 21.7599 115.13 21.5312 114.931 21.233C114.733 20.9318 114.633 20.5682 114.633 20.142C114.633 19.767 114.707 19.4631 114.855 19.2301C115.002 18.9943 115.2 18.8097 115.447 18.6761C115.694 18.5426 115.967 18.4432 116.265 18.3778C116.566 18.3097 116.869 18.2557 117.173 18.2159C117.571 18.1648 117.893 18.1264 118.14 18.1009C118.39 18.0724 118.572 18.0256 118.686 17.9602C118.802 17.8949 118.86 17.7812 118.86 17.6193V17.5852C118.86 17.1648 118.745 16.8381 118.515 16.6051C118.288 16.3722 117.943 16.2557 117.48 16.2557C117 16.2557 116.623 16.3608 116.35 16.571C116.078 16.7812 115.886 17.0057 115.775 17.2443L114.821 16.9034C114.991 16.5057 115.218 16.196 115.502 15.9744C115.789 15.75 116.102 15.5937 116.44 15.5057C116.781 15.4148 117.116 15.3693 117.446 15.3693C117.656 15.3693 117.897 15.3949 118.17 15.446C118.446 15.4943 118.711 15.5952 118.967 15.7486C119.225 15.902 119.44 16.1335 119.61 16.4432C119.781 16.7528 119.866 17.1676 119.866 17.6875V22H118.86V21.1136H118.809C118.741 21.2557 118.627 21.4077 118.468 21.5696C118.309 21.7315 118.098 21.8693 117.833 21.983C117.569 22.0966 117.247 22.1534 116.866 22.1534ZM117.02 21.25C117.417 21.25 117.752 21.1719 118.025 21.0156C118.301 20.8594 118.508 20.6577 118.647 20.4105C118.789 20.1634 118.86 19.9034 118.86 19.6307V18.7102C118.818 18.7614 118.724 18.8082 118.579 18.8509C118.437 18.8906 118.272 18.9261 118.085 18.9574C117.9 18.9858 117.72 19.0114 117.544 19.0341C117.37 19.054 117.23 19.071 117.122 19.0852C116.86 19.1193 116.616 19.1747 116.389 19.2514C116.164 19.3253 115.983 19.4375 115.843 19.5881C115.707 19.7358 115.639 19.9375 115.639 20.1932C115.639 20.5426 115.768 20.8068 116.027 20.9858C116.288 21.1619 116.619 21.25 117.02 21.25ZM121.702 22V15.4545H122.673V16.4773H122.759C122.895 16.1278 123.115 15.8565 123.419 15.6634C123.723 15.4673 124.088 15.3693 124.514 15.3693C124.946 15.3693 125.305 15.4673 125.592 15.6634C125.882 15.8565 126.108 16.1278 126.27 16.4773H126.338C126.506 16.1392 126.757 15.8707 127.092 15.6719C127.428 15.4702 127.83 15.3693 128.298 15.3693C128.884 15.3693 129.362 15.5526 129.734 15.919C130.107 16.2827 130.293 16.8494 130.293 17.6193V22H129.287V17.6193C129.287 17.1364 129.155 16.7912 128.891 16.5838C128.626 16.3764 128.315 16.2727 127.957 16.2727C127.497 16.2727 127.141 16.4119 126.888 16.6903C126.635 16.9659 126.509 17.3153 126.509 17.7386V22H125.486V17.517C125.486 17.1449 125.365 16.8452 125.124 16.6179C124.882 16.3878 124.571 16.2727 124.19 16.2727C123.929 16.2727 123.685 16.3423 123.457 16.4815C123.233 16.6207 123.051 16.8139 122.912 17.0611C122.776 17.3054 122.707 17.5881 122.707 17.9091V22H121.702ZM134.876 22.1364C134.245 22.1364 133.701 21.9972 133.244 21.7188C132.789 21.4375 132.438 21.0455 132.191 20.5426C131.947 20.0369 131.825 19.4489 131.825 18.7784C131.825 18.108 131.947 17.517 132.191 17.0057C132.438 16.4915 132.782 16.0909 133.222 15.804C133.665 15.5142 134.183 15.3693 134.773 15.3693C135.114 15.3693 135.451 15.4261 135.783 15.5398C136.116 15.6534 136.418 15.8381 136.691 16.0938C136.964 16.3466 137.181 16.6818 137.343 17.0994C137.505 17.517 137.586 18.0312 137.586 18.642V19.0682H132.54V18.1989H136.563C136.563 17.8295 136.489 17.5 136.342 17.2102C136.197 16.9205 135.989 16.6918 135.719 16.5241C135.452 16.3565 135.137 16.2727 134.773 16.2727C134.373 16.2727 134.026 16.3722 133.734 16.571C133.444 16.767 133.221 17.0227 133.065 17.3381C132.908 17.6534 132.83 17.9915 132.83 18.3523V18.9318C132.83 19.4261 132.915 19.8452 133.086 20.1889C133.259 20.5298 133.499 20.7898 133.806 20.9688C134.113 21.1449 134.469 21.233 134.876 21.233C135.14 21.233 135.379 21.196 135.592 21.1222C135.808 21.0455 135.994 20.9318 136.15 20.7812C136.306 20.6278 136.427 20.4375 136.512 20.2102L137.484 20.483C137.381 20.8125 137.21 21.1023 136.968 21.3523C136.727 21.5994 136.428 21.7926 136.073 21.9318C135.718 22.0682 135.319 22.1364 134.876 22.1364Z" fill="black"/>
</svg>
