<svg width="214" height="25" viewBox="0 0 214 25" fill="none" xmlns="http://www.w3.org/2000/svg">
<rect x="0.5" y="0.5" width="181" height="24" fill="white" stroke="black"/>
<path d="M60 1V25" stroke="black"/>
<path d="M11.6705 10.4545L13.2386 13.1307L14.8068 10.4545H15.9659L13.8523 13.7273L15.9659 17H14.8068L13.2386 14.4602L11.6705 17H10.5114L12.5909 13.7273L10.5114 10.4545H11.6705ZM18.1509 10.4545L19.7191 13.1307L21.2873 10.4545H22.4464L20.3327 13.7273L22.4464 17H21.2873L19.7191 14.4602L18.1509 17H16.9918L19.0714 13.7273L16.9918 10.4545H18.1509ZM24.6314 10.4545L26.1996 13.1307L27.7678 10.4545H28.9268L26.8132 13.7273L28.9268 17H27.7678L26.1996 14.4602L24.6314 17H23.4723L25.5518 13.7273L23.4723 10.4545H24.6314ZM31.1119 10.4545L32.68 13.1307L34.2482 10.4545H35.4073L33.2937 13.7273L35.4073 17H34.2482L32.68 14.4602L31.1119 17H29.9528L32.0323 13.7273L29.9528 10.4545H31.1119ZM37.5923 10.4545L39.1605 13.1307L40.7287 10.4545H41.8878L39.7741 13.7273L41.8878 17H40.7287L39.1605 14.4602L37.5923 17H36.4332L38.5128 13.7273L36.4332 10.4545H37.5923ZM44.0728 10.4545L45.641 13.1307L47.2092 10.4545H48.3683L46.2546 13.7273L48.3683 17H47.2092L45.641 14.4602L44.0728 17H42.9137L44.9933 13.7273L42.9137 10.4545H44.0728Z" fill="black"/>
<path d="M74 1V13V25" stroke="black"/>
<path d="M122.977 8.27273V17H121.955L117.199 10.1477H117.114V17H116.057V8.27273H117.08L121.852 15.142H121.938V8.27273H122.977ZM126.882 17.1534C126.467 17.1534 126.091 17.0753 125.752 16.919C125.414 16.7599 125.146 16.5312 124.947 16.233C124.748 15.9318 124.649 15.5682 124.649 15.142C124.649 14.767 124.723 14.4631 124.87 14.2301C125.018 13.9943 125.216 13.8097 125.463 13.6761C125.71 13.5426 125.983 13.4432 126.281 13.3778C126.582 13.3097 126.885 13.2557 127.189 13.2159C127.586 13.1648 127.909 13.1264 128.156 13.1009C128.406 13.0724 128.588 13.0256 128.701 12.9602C128.818 12.8949 128.876 12.7812 128.876 12.6193V12.5852C128.876 12.1648 128.761 11.8381 128.531 11.6051C128.304 11.3722 127.958 11.2557 127.495 11.2557C127.015 11.2557 126.639 11.3608 126.366 11.571C126.093 11.7812 125.902 12.0057 125.791 12.2443L124.836 11.9034C125.007 11.5057 125.234 11.196 125.518 10.9744C125.805 10.75 126.118 10.5937 126.456 10.5057C126.797 10.4148 127.132 10.3693 127.461 10.3693C127.672 10.3693 127.913 10.3949 128.186 10.446C128.461 10.4943 128.727 10.5952 128.983 10.7486C129.241 10.902 129.456 11.1335 129.626 11.4432C129.797 11.7528 129.882 12.1676 129.882 12.6875V17H128.876V16.1136H128.825C128.757 16.2557 128.643 16.4077 128.484 16.5696C128.325 16.7315 128.113 16.8693 127.849 16.983C127.585 17.0966 127.262 17.1534 126.882 17.1534ZM127.035 16.25C127.433 16.25 127.768 16.1719 128.041 16.0156C128.316 15.8594 128.524 15.6577 128.663 15.4105C128.805 15.1634 128.876 14.9034 128.876 14.6307V13.7102C128.833 13.7614 128.74 13.8082 128.595 13.8509C128.453 13.8906 128.288 13.9261 128.1 13.9574C127.916 13.9858 127.735 14.0114 127.559 14.0341C127.386 14.054 127.245 14.071 127.137 14.0852C126.876 14.1193 126.632 14.1747 126.404 14.2514C126.18 14.3253 125.998 14.4375 125.859 14.5881C125.723 14.7358 125.654 14.9375 125.654 15.1932C125.654 15.5426 125.784 15.8068 126.042 15.9858C126.304 16.1619 126.635 16.25 127.035 16.25ZM131.717 17V10.4545H132.689V11.4773H132.774C132.911 11.1278 133.131 10.8565 133.435 10.6634C133.739 10.4673 134.104 10.3693 134.53 10.3693C134.962 10.3693 135.321 10.4673 135.608 10.6634C135.898 10.8565 136.124 11.1278 136.286 11.4773H136.354C136.521 11.1392 136.773 10.8707 137.108 10.6719C137.443 10.4702 137.845 10.3693 138.314 10.3693C138.899 10.3693 139.378 10.5526 139.75 10.919C140.122 11.2827 140.308 11.8494 140.308 12.6193V17H139.303V12.6193C139.303 12.1364 139.17 11.7912 138.906 11.5838C138.642 11.3764 138.331 11.2727 137.973 11.2727C137.513 11.2727 137.156 11.4119 136.903 11.6903C136.651 11.9659 136.524 12.3153 136.524 12.7386V17H135.501V12.517C135.501 12.1449 135.381 11.8452 135.139 11.6179C134.898 11.3878 134.587 11.2727 134.206 11.2727C133.945 11.2727 133.7 11.3423 133.473 11.4815C133.249 11.6207 133.067 11.8139 132.928 12.0611C132.791 12.3054 132.723 12.5881 132.723 12.9091V17H131.717ZM144.891 17.1364C144.261 17.1364 143.717 16.9972 143.259 16.7188C142.805 16.4375 142.454 16.0455 142.207 15.5426C141.962 15.0369 141.84 14.4489 141.84 13.7784C141.84 13.108 141.962 12.517 142.207 12.0057C142.454 11.4915 142.798 11.0909 143.238 10.804C143.681 10.5142 144.198 10.3693 144.789 10.3693C145.13 10.3693 145.467 10.4261 145.799 10.5398C146.131 10.6534 146.434 10.8381 146.707 11.0938C146.979 11.3466 147.197 11.6818 147.359 12.0994C147.521 12.517 147.602 13.0312 147.602 13.642V14.0682H142.556V13.1989H146.579C146.579 12.8295 146.505 12.5 146.357 12.2102C146.212 11.9205 146.005 11.6918 145.735 11.5241C145.468 11.3565 145.153 11.2727 144.789 11.2727C144.388 11.2727 144.042 11.3722 143.749 11.571C143.46 11.767 143.237 12.0227 143.08 12.3381C142.924 12.6534 142.846 12.9915 142.846 13.3523V13.9318C142.846 14.4261 142.931 14.8452 143.102 15.1889C143.275 15.5298 143.515 15.7898 143.822 15.9688C144.129 16.1449 144.485 16.233 144.891 16.233C145.156 16.233 145.394 16.196 145.607 16.1222C145.823 16.0455 146.009 15.9318 146.165 15.7812C146.322 15.6278 146.442 15.4375 146.528 15.2102L147.499 15.483C147.397 15.8125 147.225 16.1023 146.984 16.3523C146.742 16.5994 146.444 16.7926 146.089 16.9318C145.734 17.0682 145.335 17.1364 144.891 17.1364Z" fill="black"/>
<path d="M181.5 12H209.5" stroke="black"/>
<rect x="205" y="11.9254" width="6" height="6" transform="rotate(-47 205 11.9254)" fill="black"/>
</svg>
