<svg width="106" height="68" viewBox="0 0 106 68" fill="none" xmlns="http://www.w3.org/2000/svg">
<rect x="31.5" y="0.5" width="74" height="67" fill="white" stroke="black"/>
<line y1="33.5" x2="31.0161" y2="33.5" stroke="black"/>
<path d="M88.983 13.1136C88.4905 13.1136 88.0585 12.9964 87.6868 12.7621C87.3175 12.5277 87.0286 12.1998 86.8203 11.7784C86.6143 11.357 86.5114 10.8646 86.5114 10.3011C86.5114 9.73295 86.6143 9.23698 86.8203 8.81321C87.0286 8.38944 87.3175 8.06037 87.6868 7.82599C88.0585 7.59162 88.4905 7.47443 88.983 7.47443C89.4754 7.47443 89.9063 7.59162 90.2756 7.82599C90.6473 8.06037 90.9361 8.38944 91.142 8.81321C91.3504 9.23698 91.4545 9.73295 91.4545 10.3011C91.4545 10.8646 91.3504 11.357 91.142 11.7784C90.9361 12.1998 90.6473 12.5277 90.2756 12.7621C89.9063 12.9964 89.4754 13.1136 88.983 13.1136ZM88.983 12.3608C89.357 12.3608 89.6648 12.2649 89.9062 12.0732C90.1477 11.8814 90.3265 11.6293 90.4425 11.3168C90.5585 11.0043 90.6165 10.6657 90.6165 10.3011C90.6165 9.93655 90.5585 9.59683 90.4425 9.28196C90.3265 8.96709 90.1477 8.71259 89.9062 8.51847C89.6648 8.32434 89.357 8.22727 88.983 8.22727C88.6089 8.22727 88.3011 8.32434 88.0597 8.51847C87.8182 8.71259 87.6394 8.96709 87.5234 9.28196C87.4074 9.59683 87.3494 9.93655 87.3494 10.3011C87.3494 10.6657 87.4074 11.0043 87.5234 11.3168C87.6394 11.6293 87.8182 11.8814 88.0597 12.0732C88.3011 12.2649 88.6089 12.3608 88.983 12.3608ZM96.1713 10.7699V7.54545H97.0094V13H96.1713V12.0767H96.1145C95.9867 12.3537 95.7878 12.5893 95.5179 12.7834C95.248 12.9751 94.9071 13.071 94.4952 13.071C94.1543 13.071 93.8513 12.9964 93.5861 12.8473C93.321 12.6958 93.1126 12.4685 92.9611 12.1655C92.8096 11.8601 92.7338 11.4754 92.7338 11.0114V7.54545H93.5719V10.9545C93.5719 11.3523 93.6832 11.6695 93.9057 11.9062C94.1306 12.143 94.4171 12.2614 94.7651 12.2614C94.9734 12.2614 95.1853 12.2081 95.4007 12.1016C95.6185 11.995 95.8008 11.8317 95.9476 11.6115C96.0968 11.3913 96.1713 11.1108 96.1713 10.7699ZM100.917 7.54545V8.25568H98.0898V7.54545H100.917ZM98.9137 6.23864H99.7518V11.4375C99.7518 11.6742 99.7861 11.8518 99.8548 11.9702C99.9258 12.0862 100.016 12.1643 100.125 12.2045C100.236 12.2424 100.353 12.2614 100.476 12.2614C100.569 12.2614 100.644 12.2566 100.703 12.2472C100.763 12.2353 100.81 12.2259 100.846 12.2188L101.016 12.9716C100.959 12.9929 100.88 13.0142 100.778 13.0355C100.676 13.0592 100.547 13.071 100.391 13.071C100.154 13.071 99.9222 13.0201 99.695 12.9183C99.4701 12.8165 99.283 12.6615 99.1339 12.4531C98.9871 12.2448 98.9137 11.982 98.9137 11.6648V6.23864Z" fill="black"/>
</svg>
