<?xml version="1.0" standalone="no"?>
<!DOCTYPE svg PUBLIC "-//W3C//DTD SVG 20010904//EN"
 "http://www.w3.org/TR/2001/REC-SVG-20010904/DTD/svg10.dtd">
<svg version="1.0" xmlns="http://www.w3.org/2000/svg"
 width="512.000000pt" height="512.000000pt" viewBox="0 0 512.000000 512.000000"
 preserveAspectRatio="xMidYMid meet">

<g transform="translate(0.000000,512.000000) scale(0.100000,-0.100000)"
fill="#000000" stroke="none">
<path d="M1830 5109 c-248 -38 -456 -182 -579 -400 -22 -40 -47 -67 -86 -93
-157 -104 -252 -258 -278 -453 -10 -74 -14 -83 -33 -83 -37 0 -147 -41 -204
-75 -66 -40 -146 -121 -189 -190 -112 -178 -95 -435 40 -597 21 -26 39 -48 39
-50 0 -2 -28 -32 -62 -68 -115 -121 -185 -258 -213 -415 -26 -151 -13 -273 45
-423 l32 -83 -32 -48 c-96 -151 -106 -362 -24 -525 35 -70 95 -145 143 -181
22 -17 41 -33 41 -38 0 -4 -11 -24 -25 -45 -55 -84 -82 -219 -65 -328 33 -209
204 -383 418 -425 83 -16 212 -7 287 20 33 12 67 24 75 27 11 4 19 -12 32 -67
78 -324 387 -558 743 -562 212 -2 405 69 549 204 l77 72 58 -56 c76 -73 165
-129 260 -166 112 -43 183 -55 306 -54 137 1 234 25 365 90 80 39 109 61 186
137 76 77 98 106 137 186 26 52 54 122 62 154 8 32 16 60 18 62 1 2 34 -8 72
-23 144 -53 316 -40 456 33 80 42 175 138 214 215 77 151 70 347 -17 484 l-25
39 71 71 c176 174 219 417 113 630 -16 33 -36 68 -45 77 -13 16 -12 23 11 76
40 89 58 168 64 278 12 222 -72 437 -231 593 l-54 54 48 63 c50 65 85 144 101
228 31 163 -27 340 -151 465 -75 76 -158 124 -262 150 l-73 19 -7 68 c-19 190
-137 378 -295 471 -33 19 -51 41 -79 94 -91 173 -276 313 -489 370 -95 25
-268 30 -360 10 -150 -33 -289 -106 -396 -208 l-58 -56 -77 72 c-165 154 -428
234 -654 200z m341 -146 c105 -36 212 -105 279 -181 l50 -56 0 -2166 0 -2166
-50 -56 c-113 -127 -285 -206 -465 -216 -365 -18 -671 236 -701 581 -6 68 -10
80 -32 95 -23 15 -27 15 -61 -6 -145 -86 -240 -112 -349 -94 -140 23 -259 111
-316 232 -28 58 -31 75 -31 160 0 82 4 102 26 150 45 94 47 95 105 75 77 -26
147 -31 167 -10 21 21 22 59 2 79 -9 8 -32 18 -53 21 -293 50 -469 330 -371
590 33 85 34 86 82 33 53 -59 115 -108 136 -108 24 0 48 21 56 47 5 18 -8 38
-72 106 -137 147 -193 269 -201 443 -6 128 14 224 70 337 34 69 58 99 150 190
85 84 108 112 103 127 -3 11 -33 46 -66 79 -230 231 -134 604 182 702 82 26
215 25 289 -1 75 -26 106 -25 125 4 34 51 -26 100 -151 121 -72 12 -74 14 -74
54 0 20 7 63 15 96 77 296 416 463 721 355 74 -25 110 -26 124 -1 28 54 6 79
-105 117 -72 26 -93 28 -218 29 -75 0 -137 3 -137 6 0 9 123 128 155 150 52
35 120 67 186 88 91 29 101 30 229 27 98 -2 128 -7 201 -33z m1173 17 c140
-36 271 -116 354 -217 l35 -43 -104 6 c-113 7 -196 -6 -302 -46 -68 -26 -88
-57 -62 -96 19 -30 52 -31 123 -4 254 97 567 -20 683 -255 27 -55 68 -219 58
-229 -3 -3 -36 -11 -75 -19 -80 -17 -142 -44 -158 -69 -16 -26 4 -72 33 -76
13 -2 54 6 92 18 57 19 85 22 172 18 96 -3 110 -6 179 -40 93 -47 168 -119
211 -207 30 -62 32 -72 32 -176 0 -99 -3 -116 -27 -168 -16 -35 -54 -86 -93
-126 -86 -90 -86 -102 6 -176 186 -151 283 -388 249 -612 -24 -154 -89 -281
-201 -393 -73 -71 -83 -98 -52 -132 31 -34 60 -22 139 58 88 87 89 86 124 -25
78 -247 -86 -507 -355 -561 -90 -18 -114 -48 -79 -98 19 -28 56 -28 149 -3 81
23 84 21 120 -53 37 -75 48 -152 35 -228 -54 -298 -412 -434 -666 -253 -53 38
-71 42 -98 22 -13 -10 -20 -34 -26 -94 -26 -257 -193 -463 -445 -549 -104 -35
-254 -43 -365 -20 -138 29 -297 124 -373 222 l-37 47 0 769 0 768 304 0 304 0
72 -200 72 -201 -44 -47 c-61 -65 -82 -123 -76 -211 9 -118 77 -202 191 -236
64 -19 91 -19 157 1 114 34 201 166 187 285 -16 132 -129 239 -253 239 l-52 0
-47 133 c-26 72 -61 169 -77 214 -20 57 -39 91 -60 108 l-30 25 -324 0 -324 0
0 225 0 225 490 0 489 0 22 -50 c44 -102 156 -168 269 -157 71 6 126 34 174
87 52 58 69 103 69 180 0 77 -17 122 -69 180 -59 65 -105 85 -199 85 -69 0
-86 -4 -125 -27 -60 -35 -94 -73 -120 -130 l-21 -48 -489 0 -490 0 0 225 0
225 324 0 324 0 30 25 c21 17 40 51 60 108 16 45 51 142 77 215 l47 132 53 0
c107 0 207 82 241 197 64 221 -170 412 -379 310 -166 -82 -198 -298 -65 -434
l40 -41 -72 -201 -73 -201 -303 0 -304 0 0 768 0 769 35 45 c77 98 234 194
366 222 96 21 232 20 323 -4z m242 -1026 c77 -36 109 -146 62 -213 -69 -101
-185 -106 -256 -13 -35 46 -38 126 -6 169 51 69 128 91 200 57z m358 -1262
c51 -30 71 -67 71 -132 0 -44 -5 -66 -21 -87 -70 -93 -205 -87 -261 13 -79
138 72 285 211 206z m-345 -1259 c14 -11 37 -35 49 -54 30 -43 27 -120 -6
-166 -45 -63 -141 -82 -202 -40 -55 37 -75 72 -75 131 0 61 31 111 87 140 41
21 110 16 147 -11z"/>
<path d="M1811 4255 c-143 -32 -265 -124 -323 -243 -31 -62 -33 -74 -33 -167
0 -91 3 -105 30 -160 26 -53 34 -60 62 -63 25 -3 35 2 49 23 16 25 16 29 -7
83 -65 153 5 313 170 391 50 23 68 26 166 26 114 0 156 -12 247 -71 50 -33
107 9 87 64 -5 12 -30 36 -56 52 -103 66 -269 93 -392 65z"/>
<path d="M1235 3118 c-36 -33 -65 -123 -65 -206 0 -82 26 -164 70 -226 l32
-44 -21 -40 c-46 -91 -63 -241 -40 -354 24 -116 117 -268 165 -268 19 0 54 36
54 56 0 8 -18 45 -40 82 -23 37 -48 92 -57 122 -24 78 -21 200 6 272 l22 57
47 -24 c164 -82 371 -72 522 25 50 32 66 61 49 91 -22 41 -45 42 -112 5 -168
-94 -351 -82 -477 31 -96 86 -128 192 -90 298 33 94 34 101 11 124 -27 27 -44
26 -76 -1z"/>
<path d="M1499 1722 c-173 -57 -290 -182 -318 -338 -19 -103 18 -243 73 -279
24 -16 28 -16 50 -1 36 23 40 49 14 98 -18 33 -23 60 -23 118 0 65 4 82 29
128 37 67 82 106 166 146 59 28 74 31 166 31 99 0 103 -1 185 -42 115 -59 149
-55 149 13 0 27 -7 37 -46 63 -86 57 -147 74 -274 78 -91 2 -127 -1 -171 -15z"/>
<path d="M1613 1188 c-12 -6 -32 -34 -45 -62 -19 -43 -23 -68 -23 -156 0 -96
3 -110 29 -165 113 -231 428 -324 680 -201 28 14 61 35 74 46 31 29 29 75 -3
96 -23 15 -27 15 -62 -5 -79 -44 -128 -64 -189 -74 -157 -27 -329 56 -396 191
-31 64 -31 169 0 229 28 53 27 58 -3 88 -27 28 -30 28 -62 13z"/>
</g>
</svg>
